<svg xmlns="http://www.w3.org/2000/svg" viewBox="0 0 960 600" role="img" aria-labelledby="t d"><title id="t">AI waterlogging detection scene</title><desc id="d">Stylized flooded city road with rain, vehicle and highlighted waterlogging zone.</desc><defs><linearGradient id="bg" x1="0" y1="0" x2="0" y2="1"><stop stop-color="#1f3558"/><stop offset="1" stop-color="#07101f"/></linearGradient><linearGradient id="water" x1="0" y1="0" x2="1" y2="1"><stop stop-color="#2b6fa3" stop-opacity=".9"/><stop offset="1" stop-color="#0b273f" stop-opacity=".95"/></linearGradient><filter id="g"><feGaussianBlur stdDeviation="7" result="b"/><feMerge><feMergeNode in="b"/><feMergeNode in="SourceGraphic"/></feMerge></filter></defs><rect width="960" height="600" fill="url(#bg)"/><g fill="#172842"><rect x="0" y="155" width="170" height="230"/><rect x="120" y="120" width="160" height="265"/><rect x="680" y="130" width="145" height="255"/><rect x="800" y="90" width="160" height="295"/></g><path d="M0 370L960 330V600H0Z" fill="#172230"/><path d="M0 425c180-35 340-5 510-18 174-14 284-55 450-28v221H0Z" fill="url(#water)"/><g stroke="#a9d8ff" stroke-width="4" opacity=".45"><path d="M50 38l-26 80M155 25l-25 88M270 10l-30 96M385 35l-26 84M505 15l-28 92M625 28l-26 87M750 12l-32 105M865 30l-26 88"/></g><g transform="translate(500 328)"><path d="M0 75l38-62h145l58 62v65H0Z" fill="#263b52"/><rect x="35" y="34" width="67" height="44" rx="8" fill="#6f8df8" opacity=".55"/><rect x="112" y="34" width="58" height="44" rx="8" fill="#6f8df8" opacity=".55"/><circle cx="48" cy="142" r="27" fill="#09101b"/><circle cx="190" cy="142" r="27" fill="#09101b"/></g><ellipse cx="420" cy="492" rx="260" ry="75" fill="none" stroke="#6f8df8" stroke-width="6" filter="url(#g)"/><path d="M180 492h480" stroke="#6f8df8" stroke-width="3" stroke-dasharray="18 16" opacity=".7"/><g transform="translate(190 382)"><rect width="315" height="50" rx="25" fill="#07101f" opacity=".92"/><circle cx="25" cy="25" r="7" fill="#6f8df8"/><text x="45" y="32" fill="#eaf1ff" font-family="Arial" font-size="20" font-weight="700">WATERLOGGING · 94%</text></g><g transform="translate(58 55)"><rect width="286" height="72" rx="16" fill="#081526" stroke="#6f8df8" stroke-opacity=".45"/><text x="22" y="31" fill="#9eb1ff" font-family="Arial" font-size="15" font-weight="700">DRAINAGE ALERT</text><text x="22" y="55" fill="#8b9bb7" font-family="Arial" font-size="13">Karwan Bazar · CAM 12</text></g></svg>